<svg xmlns:dc="http://purl.org/dc/elements/1.1/" xmlns:cc="http://creativecommons.org/ns#" xmlns:rdf="http://www.w3.org/1999/02/22-rdf-syntax-ns#" xmlns:svg="http://www.w3.org/2000/svg" xmlns="http://www.w3.org/2000/svg" xmlns:sodipodi="http://sodipodi.sourceforge.net/DTD/sodipodi-0.dtd" xmlns:inkscape="http://www.inkscape.org/namespaces/inkscape" version="1.1" x="0px" y="0px" viewBox="0 0 100 125"><g transform="translate(0,-952.36218)"><path d="m 44.662118,971.39912 17.937495,30.78128 5.312516,-9.15627 c 0.336083,-0.58323 0.983587,-0.97416 1.656177,-1.00003 0.724713,-0.0288 1.450488,0.37159 1.812614,1.00003 l 22.124972,38.06247 c 1.19141,1.9779 -0.091,3.3159 -1.906295,3.3125 l -83.6249869,0 c -1.391704,-0.01 -2.414409,-1.7946 -1.718681,-3 L 41.193327,971.39912 c 0.840897,-1.46275 2.52457,-1.40053 3.468791,0 z m -1.750004,4.96874 -31.468819,54.03124 34.718811,0 14.093822,-24.2187 z m 26.749984,21.62501 -18.843803,32.40623 37.656318,0 z" style="text-indent:0;text-transform:none;direction:ltr;block-progression:tb;baseline-shift:baseline;color:#000000;enable-background:accumulate;" fill="#fff" fill-opacity="1" fill-rule="evenodd" stroke="none" marker="none" visibility="visible" display="inline" overflow="visible"/><path d="m 43.813673,983.1421 a 2.0001997,2.0001997 0 0 1 1.62326,3.03285 l -16.375606,27.99215 a 2.0001997,2.0001997 0 1 1 -3.452492,-2.0197 l 16.375606,-27.99213 a 2.0001997,2.0001997 0 0 1 1.829232,-1.01317 z" style="text-indent:0;text-transform:none;direction:ltr;block-progression:tb;baseline-shift:baseline;color:#000000;enable-background:accumulate;" fill="#fff" fill-opacity="1" fill-rule="evenodd" stroke="none" marker="none" visibility="visible" display="inline" overflow="visible"/></g></svg>